<svg width="204" height="237" viewBox="0 0 204 237" fill="none" xmlns="http://www.w3.org/2000/svg">
<path d="M102.562 12.1124L100.876 8.17978L99.191 4.80899L93.573 2L86.2697 3.68539L80.6517 5.93258L74.4719 8.17978L71.1011 5.93258L64.3595 8.17978L58.1798 10.427L50.3146 12.1124L41.8876 17.1685L36.8315 24.4719L35.1461 31.2135L29.5281 36.8315L22.7865 43.0112L20.5393 49.7528V55.3708M102.562 12.1124L102.231 17.7303M102.562 12.1124L103.685 10.1461L104.809 8.17978L109.865 3.68539L118.292 2L124.472 3.68539L132.899 5.93258L141.888 10.427L152 15.4831L159.303 18.8539L164.36 24.4719L167.169 31.2135L170.539 36.8315L175.596 43.0112L178.966 48.0674L180.933 52L182.899 55.9326L185.146 63.236L186.831 69.9775L188.517 76.7191V82.3371V84.3034V86.2697L191.326 91.3258L195.82 98.0674L197.506 103.685L195.82 109.303V114.921V120.539L199.191 127.281L200.876 135.146V141.888V147.506V151.438L202 155.371L200.876 158.742L199.191 163.236L197.506 168.292L194.697 172.787L189.64 179.528V188.517L186.831 194.697L173.348 209.865L169.697 212.955L166.045 216.045L155.933 223.348L144.697 226.157L139.079 228.404L131.775 231.775L119.978 235.146L110.427 233.461L107.618 228.404L104.247 218.854L100.876 213.236M100.876 184.022L102.562 176.719V167.169M100.876 184.022L104.247 192.449L102.562 203.124M100.876 184.022C97.5056 184.584 90.3146 185.034 88.5169 182.337M102.562 203.124L100.876 213.236M102.562 203.124L95.2584 208.18L87.3933 209.865M100.876 213.236V228.404L95.2584 233.461L83.4607 235.146L73.9101 233.461L68.2921 228.404L60.9888 226.157M60.9888 226.157H54.2472L43.573 220.539L36.2697 216.045L33.4607 211.551M60.9888 226.157L71.6629 216.045L70.5393 212.112L73.9101 209.865L67.1685 197.506M7.61798 113.236L4.80899 120.539L2 129.528V135.708L3.1236 147.506V155.371L3.96629 160.427M7.61798 113.236V100.876L9.30337 91.8876L12.1124 84.5843L17.1685 79.5281M7.61798 113.236L17.7303 110.989M17.1685 79.5281V67.7303V58.7416L20.5393 55.3708M17.1685 79.5281C16.794 82.1498 16.6067 87.2809 18.8539 86.8315C21.1011 86.382 23.9101 84.0225 25.0337 82.8989M20.5393 55.3708C21.4757 55.5581 23.7978 55.8202 25.5955 55.3708C27.8427 54.809 31.7753 48.6292 35.1461 48.0674C38.5169 47.5056 46.9438 46.9438 48.0674 49.7528C48.9663 52 45.8202 54.4345 44.1348 55.3708M26.7191 189.079L37.9551 185.708L46.9438 188.517M46.9438 188.517L57.618 198.629M46.9438 188.517L54.2472 182.337M44.1348 133.461L50.3146 148.629L59.8652 155.371L76.1573 151.438L89.6404 163.236L102.562 167.169M102.562 167.169V155.371V124.472V106.494M74.4719 38.5169L88.5169 31.2135L101.24 34.5843M101.24 34.5843L100.876 40.764V58.7416L101.719 73.6292M101.24 34.5843L101.901 23.3483M77.8427 25.5955L84.0225 22.2247H87.9551L93.573 23.9101L101.901 23.3483M101.901 23.3483L102.231 17.7303M65.4831 73.9101L74.4719 76.7191L80.6517 83.4607M80.6517 83.4607L93.573 86.2697M80.6517 83.4607L74.4719 88.5169L67.7303 91.8876L59.3034 88.5169M56.4944 125.034L62.1124 126.719H67.1685M67.1685 126.719L71.1011 124.472M67.1685 126.719V132.899L62.1124 141.888M71.1011 124.472L75.0337 119.978L76.1573 113.798M71.1011 124.472L71.6629 129.528L74.4719 133.461L82.8989 139.079M74.4719 104.809L80.0899 102.562L85.7079 106.494L91.3258 108.742L102.562 106.494M102.562 106.494V97.5056V88.5169L101.719 73.6292M49.7528 58.7416C52.3745 57.9925 58.2921 55.8202 60.9888 53.1236C63.6854 50.427 66.2322 46.0075 67.1685 44.1348M102.231 17.7303C100.094 14.7341 95.2584 8.74157 93.0112 8.74157C90.764 8.74157 88.3296 12.8614 87.3933 14.9213M55.3708 90.2022C56.1198 93.0112 57.618 99.6404 57.618 103.685C57.618 107.73 55.3708 113.61 54.2472 116.045L52.5618 120.539C51.0637 119.603 47.2809 117.73 44.1348 117.73C40.9888 117.73 37.5805 121.101 36.2697 122.787M33.4607 211.551L30.6517 207.056L25.5955 198.629L19.4157 195.258L13.7978 191.326L12.1124 185.708V178.966L7.61798 173.91L4.80899 165.483L3.96629 160.427M33.4607 211.551C35.3333 211.925 39.5281 212.112 41.3258 209.865C43.1236 207.618 42.824 203.311 42.4494 201.438M61.5506 16.6067C64.9213 15.6704 72.5618 13.7978 76.1573 13.7978C79.7528 13.7978 80.2772 15.6704 80.0899 16.6067C79.1536 18.1049 76.4944 20.8764 73.3483 19.9775M77.8427 44.1348C78.9663 45.633 81.1011 49.0787 80.6517 50.8764C80.2022 52.6742 77.4682 54.6217 76.1573 55.3708M76.1573 55.3708C74.4719 56.4944 70.3146 59.0787 67.1685 60.427C64.0225 61.7753 61.7378 67.7303 60.9888 70.5393M76.1573 55.3708L91.3258 56.4944M86.2697 77.8427C87.7678 76.9064 91.3258 74.809 93.573 73.9101C95.8202 73.0112 99.9401 73.3483 101.719 73.6292M3.96629 160.427C5.93258 159.865 9.86517 158.404 9.86517 157.056C9.86517 155.708 10.6142 148.255 10.9888 144.697C12.2996 143.948 15.2584 142.449 16.6067 142.449C18.2921 142.449 22.2247 135.708 27.8427 135.708C32.3371 135.708 35.7079 142.449 36.8315 145.82M26.7191 145.82C27.8427 146.944 30.0899 150.202 30.0899 154.247C30.0899 157.335 29.0423 160.423 27.8427 162.359M25.5955 164.36C26.2516 164.36 27.078 163.593 27.8427 162.359M22.2247 173.91L27.8427 162.359M27.8427 162.359C32.5243 166.209 42.7865 173.91 46.382 173.91C50.8764 173.91 63.7978 173.348 66.6067 168.292C65.6704 171.101 64.5843 176.831 67.7303 177.281C68.6783 177.416 69.8542 177.079 71.1011 176.475M78.9663 170.539C77.2654 172.24 73.9922 175.075 71.1011 176.475M71.1011 176.475C71.8502 179.74 73.9101 186.494 76.1573 187.393M76.1573 187.393C78.4045 188.292 84.9588 192.637 87.9551 194.697M76.1573 187.393L75.0337 193.011M35.7079 42.4494C37.9551 42.6367 43.1236 43.0112 45.8202 43.0112C48.5169 43.0112 51.8127 40.764 53.1236 39.6404M53.1236 39.6404L62.6742 36.8315L63.7978 32.3371M53.1236 39.6404L52 31.2135C54.2472 28.9663 58.6292 24.0225 58.1798 22.2247C57.7303 20.427 48.6292 23.7228 44.1348 25.5955M63.7978 32.3371C62.2996 31.9625 59.3034 30.8764 59.3034 29.5281M63.7978 32.3371C66.2322 31.9625 71.1011 30.8764 71.1011 29.5281M39.6404 79.5281C44.8839 76.5318 54.0225 69.7528 48.6292 66.6067C43.236 63.4607 35.5206 69.0412 32.3371 72.2247C30.6517 75.0337 27.5056 81.6629 28.4045 85.7079C29.3034 89.7528 31.4007 94.1348 32.3371 95.8202M32.3371 95.8202C33.2734 97.1311 35.4831 99.6404 36.8315 99.191M32.3371 95.8202L23.3483 95.2584C21.4757 95.8202 17.2809 97.618 15.4831 100.315M36.8315 99.191C38.5169 98.6292 46.382 96.9438 46.382 95.8202M36.8315 99.191V107.056M36.8315 107.056H45.8202M36.8315 107.056L28.9663 113.236L25.0337 120.539M36.8315 107.056L28.9663 108.18L20.5393 114.921" stroke="white" stroke-width="3" stroke-linecap="round"/>
<path d="M102.562 12.1124L100.876 8.17978L99.1909 4.80899L93.573 2M102.562 12.1124L102.231 17.7303M102.562 12.1124L103.685 10.1461L104.809 8.17978L109.865 3.68539L118.292 2L124.472 3.68539L132.899 5.93258L141.888 10.427L152 15.4831L159.303 18.8539L164.359 24.4719L167.168 31.2135L170.539 36.8315L175.595 43.0112L178.966 48.0674L180.933 52L182.899 55.9326L185.146 63.236L186.831 69.9775L188.517 76.7191V82.3371V84.3034V86.2697L191.326 91.3258L195.82 98.0674L197.506 103.685L195.82 109.303V114.921V120.539L199.191 127.281L200.876 135.146V141.888V147.506V151.438L202 155.371L200.876 158.742L199.191 163.236L197.506 168.292L194.697 172.787L189.64 179.528V188.517L186.831 194.697L173.348 209.865L169.697 212.955L166.045 216.045L155.933 223.348L144.697 226.157L139.079 228.404L131.775 231.775L119.977 235.146L110.427 233.461L107.618 228.404L104.247 218.854L100.876 213.236M102.562 203.124L104.247 192.449L100.876 184.022L102.562 176.719V167.169M102.562 203.124L100.876 213.236M102.562 203.124L95.2584 208.18M100.876 213.236V228.404L95.2584 233.461M89.6404 163.236L102.562 167.169M102.562 167.169V155.371V124.472V106.494M93.573 23.9101L101.901 23.3483M101.901 23.3483L101.24 34.5843L100.876 40.764V58.7416L101.719 73.6292M101.901 23.3483L102.231 17.7303M91.3258 108.742L102.562 106.494M102.562 106.494V97.5056V88.5169L101.719 73.6292M102.231 17.7303C100.094 14.7341 95.2584 8.74157 93.0112 8.74157M93.573 73.9101C95.8202 73.0112 99.94 73.3483 101.719 73.6292" stroke="#FEBF00" stroke-width="3" stroke-linecap="round"/>
</svg>
